<svg width="26" height="26" viewBox="0 0 26 26" fill="none" xmlns="http://www.w3.org/2000/svg">
<g id="membership 1">
<g id="g4296">
<g id="g4298">
<g id="Clip path group">
<mask id="mask0_13_535" style="mask-type:luminance" maskUnits="userSpaceOnUse" x="0" y="0" width="26" height="26">
<g id="clipPath4304">
<path id="path4302" d="M0 1.90735e-06H26V26H0V1.90735e-06Z" fill="white"/>
</g>
</mask>
<g mask="url(#mask0_13_535)">
<g id="g4300">
<g id="g4306">
<path id="path4308" d="M9.61926 19.0659L9.60291 25.4922L13.0233 23.015L16.3806 25.4922L16.397 18.9831" stroke="#E2E2E2" stroke-width="0.8" stroke-miterlimit="10" stroke-linecap="round" stroke-linejoin="round"/>
</g>
<g id="g4310">
<path id="path4312" d="M10.7503 4.29927C8.27155 5.21654 6.5 7.60427 6.5 10.3979C6.5 13.982 9.41591 16.8979 13 16.8979C16.5841 16.8979 19.5 13.982 19.5 10.3979C19.5 7.60417 17.7283 5.21643 15.2494 4.29917" stroke="#E2E2E2" stroke-width="0.8" stroke-miterlimit="10" stroke-linecap="round" stroke-linejoin="round"/>
</g>
<g id="g4314">
<path id="path4316" d="M11.8912 8.94324L12.5578 6.8704C12.6942 6.44622 13.294 6.44546 13.4314 6.86928L14.1038 8.94324H16.293C16.7378 8.94324 16.9226 9.51275 16.5624 9.77387L14.7949 11.0554L15.4735 13.1237C15.6122 13.5468 15.1277 13.8998 14.7674 13.638L13.0067 12.3583L11.2397 13.6457C10.8799 13.9079 10.3951 13.5558 10.533 13.1325L11.2103 11.0539L9.43826 9.77443C9.07721 9.51372 9.26159 8.94324 9.70694 8.94324H11.8912Z" stroke="#E2E2E2" stroke-width="0.8" stroke-miterlimit="10" stroke-linecap="round" stroke-linejoin="round"/>
</g>
<g id="g4318">
<path id="path4320" d="M11.232 1.62492L12.157 0.822321C12.6407 0.402766 13.3593 0.402766 13.8429 0.822321L14.768 1.62492C15.0664 1.88385 15.4673 1.99125 15.8552 1.9162L17.0576 1.68367C17.6862 1.56215 18.3086 1.92143 18.5176 2.52669L18.9175 3.68425C19.0465 4.0577 19.3399 4.35116 19.7134 4.48014L20.8709 4.88C21.4761 5.08901 21.8355 5.71139 21.7139 6.34001L21.4814 7.54241C21.4063 7.93032 21.5138 8.33119 21.7727 8.62958L22.5753 9.55466C22.9949 10.0383 22.9949 10.7569 22.5753 11.2406L21.7727 12.1656C21.5138 12.4641 21.4063 12.8649 21.4814 13.2528L21.7139 14.4552C21.8355 15.0839 21.4761 15.7063 20.8709 15.9153L19.7134 16.3151C19.3399 16.4441 19.0465 16.7376 18.9175 17.111L18.5176 18.2686C18.3086 18.8738 17.6862 19.2331 17.0576 19.1115L15.8552 18.879C15.4673 18.804 15.0664 18.9114 14.768 19.1703L13.8429 19.9729C13.3593 20.3925 12.6407 20.3925 12.157 19.9729L11.232 19.1703C10.9336 18.9114 10.5326 18.804 10.1448 18.879L8.94238 19.1115C8.3137 19.2331 7.69133 18.8738 7.48231 18.2686L7.08246 17.111C6.95348 16.7376 6.66001 16.4441 6.28662 16.3151L5.12901 15.9153C4.5238 15.7063 4.16447 15.0839 4.28604 14.4552L4.51857 13.2528C4.59357 12.8649 4.48617 12.4641 4.22729 12.1656L3.42469 11.2406C3.00508 10.7569 3.00508 10.0383 3.42469 9.55466L4.22729 8.62958C4.48617 8.33119 4.59357 7.93032 4.51857 7.54241L4.28604 6.34001C4.16447 5.71139 4.5238 5.08901 5.12901 4.88L6.28662 4.48014C6.66001 4.35116 6.95348 4.0577 7.08246 3.68425L7.48231 2.52669C7.69133 1.92143 8.3137 1.56215 8.94238 1.68367L10.1448 1.9162C10.5326 1.99125 10.9336 1.88385 11.232 1.62492Z" stroke="#E2E2E2" stroke-width="0.8" stroke-miterlimit="10" stroke-linecap="round" stroke-linejoin="round"/>
</g>
</g>
</g>
</g>
</g>
</g>
</g>
</svg>
