<svg width="26" height="26" viewBox="0 0 26 26" fill="none" xmlns="http://www.w3.org/2000/svg">
<g id="settings 1" clip-path="url(#clip0_13_550)">
<g id="g117">
<g id="g119">
<g id="Clip path group">
<mask id="mask0_13_550" style="mask-type:luminance" maskUnits="userSpaceOnUse" x="0" y="0" width="26" height="26">
<g id="clipPath125">
<path id="path123" d="M0 1.90735e-06H26V26H0V1.90735e-06Z" fill="white"/>
</g>
</mask>
<g mask="url(#mask0_13_550)">
<g id="g121">
<g id="g127">
<path id="path129" d="M15.4477 3.51818C16.3455 3.74989 17.1937 4.10562 17.9724 4.5662C17.9724 4.5662 18.3477 4.19088 18.7691 3.76944C19.0751 3.46313 19.4904 3.29134 19.9232 3.29134C20.3556 3.29134 20.7709 3.46313 21.0769 3.76944C21.4481 4.1407 21.8593 4.55188 22.2305 4.92314C22.5369 5.2291 22.7086 5.64439 22.7086 6.07679C22.7086 6.50965 22.5369 6.92489 22.2305 7.23084C21.8091 7.65228 21.4338 8.02755 21.4338 8.02755C21.8943 8.80633 22.2501 9.65443 22.4818 10.5523H23.6065C24.5076 10.5523 25.2383 11.283 25.2383 12.1841V13.8159C25.2383 14.717 24.5076 15.4477 23.6065 15.4477H22.4818C22.2501 16.3455 21.8943 17.1937 21.4338 17.9724C21.4338 17.9724 21.8091 18.3477 22.2305 18.7691C22.5369 19.0751 22.7086 19.4904 22.7086 19.9232C22.7086 20.3556 22.5369 20.7709 22.2305 21.0769C21.8593 21.4481 21.4481 21.8593 21.0769 22.2305C20.7709 22.5369 20.3556 22.7086 19.9232 22.7086C19.4904 22.7086 19.0751 22.5369 18.7691 22.2305C18.3477 21.8091 17.9724 21.4338 17.9724 21.4338C17.1937 21.8943 16.3455 22.2501 15.4477 22.4818V23.6065C15.4477 24.5076 14.717 25.2383 13.8159 25.2383H12.1841C11.2829 25.2383 10.5523 24.5076 10.5523 23.6065V22.4818C9.65448 22.2501 8.80633 21.8943 8.02755 21.4338C8.02755 21.4338 7.65228 21.8091 7.23084 22.2305C6.92489 22.5369 6.5096 22.7086 6.07679 22.7086C5.64439 22.7086 5.22905 22.5369 4.92314 22.2305C4.55193 21.8593 4.1407 21.4481 3.76944 21.0769C3.46313 20.7709 3.29134 20.3556 3.29134 19.9232C3.29134 19.4904 3.46313 19.0751 3.76944 18.7691C4.19088 18.3477 4.5662 17.9724 4.5662 17.9724C4.10561 17.1937 3.74994 16.3455 3.51818 15.4477H2.39352C1.49236 15.4477 0.761719 14.717 0.761719 13.8159V12.1841C0.761719 11.283 1.49236 10.5523 2.39352 10.5523H3.51818C3.74994 9.65443 4.10561 8.80633 4.5662 8.02755C4.5662 8.02755 4.19088 7.65228 3.76944 7.23084C3.46313 6.92489 3.29134 6.50965 3.29134 6.07679C3.29134 5.64439 3.46313 5.2291 3.76944 4.92314C4.1407 4.55188 4.55193 4.1407 4.92314 3.76944C5.22905 3.46313 5.64439 3.29134 6.07679 3.29134C6.5096 3.29134 6.92489 3.46313 7.23084 3.76944C7.65228 4.19088 8.02755 4.5662 8.02755 4.5662C8.80633 4.10562 9.65448 3.74989 10.5523 3.51818V2.39347C10.5523 1.49231 11.2829 0.761721 12.1841 0.761721H13.8159C14.717 0.761721 15.4477 1.49231 15.4477 2.39347V3.51818Z" stroke="#E2E2E2" stroke-miterlimit="10" stroke-linecap="round" stroke-linejoin="round"/>
</g>
<g id="g131">
<path id="path133" d="M13 8.10464C15.7019 8.10464 17.8954 10.2981 17.8954 13C17.8954 15.7017 15.7019 17.8953 13 17.8953C10.2982 17.8953 8.10474 15.7017 8.10474 13C8.10474 10.2981 10.2982 8.10464 13 8.10464Z" stroke="#E2E2E2" stroke-miterlimit="10" stroke-linecap="round" stroke-linejoin="round"/>
</g>
</g>
</g>
</g>
</g>
</g>
</g>
<defs>
<clipPath id="clip0_13_550">
<rect width="26" height="26" fill="white"/>
</clipPath>
</defs>
</svg>
